<svg width="24" height="24" viewBox="0 0 24 24" fill="none" xmlns="http://www.w3.org/2000/svg">
<path fill-rule="evenodd" clip-rule="evenodd" d="M16 2C16.5523 2 17 2.44772 17 3V4H18C19.6569 4 21 5.34315 21 7V10V19C21 20.6569 19.6569 22 18 22H6C4.34315 22 3 20.6569 3 19V10V7C3 5.34315 4.34315 4 6 4H7V3C7 2.44772 7.44772 2 8 2C8.55228 2 9 2.44772 9 3V4H15V3C15 2.44772 15.4477 2 16 2ZM7 6C7 6.55228 7.44772 7 8 7C8.55228 7 9 6.55228 9 6H15C15 6.55228 15.4477 7 16 7C16.5523 7 17 6.55228 17 6H18C18.5523 6 19 6.44772 19 7V9H5V7C5 6.44772 5.44772 6 6 6H7ZM19 11V19C19 19.5523 18.5523 20 18 20H6C5.44772 20 5 19.5523 5 19V11H19Z" fill="#7E7774"/>
</svg>
