<svg width="56" height="48" viewBox="0 0 56 48" fill="none" xmlns="http://www.w3.org/2000/svg">
<path fill-rule="evenodd" clip-rule="evenodd" d="M18.8661 0H27.9998H27.9998H37.1335C38.4776 0 39.6576 0.893959 40.0215 2.18783L40.5458 4.05217C40.9097 5.34604 42.0897 6.24 43.4338 6.24H52.1998C53.8566 6.24 55.1998 7.58315 55.1998 9.24V45C55.1998 46.6569 53.8566 48 52.1998 48H27.9998H27.9998H3.79981C2.14295 48 0.799805 46.6569 0.799805 45V9.24C0.799805 7.58315 2.14295 6.24 3.7998 6.24H12.5658C13.9099 6.24 15.0899 5.34604 15.4538 4.05217L15.9781 2.18783C16.342 0.893958 17.522 0 18.8661 0ZM34.9998 27.2C34.9998 31.066 31.8658 34.2 27.9998 34.2C24.1338 34.2 20.9998 31.066 20.9998 27.2C20.9998 23.334 24.1338 20.2 27.9998 20.2C31.8658 20.2 34.9998 23.334 34.9998 27.2ZM39.9998 27.2C39.9998 33.8274 34.6272 39.2 27.9998 39.2C21.3724 39.2 15.9998 33.8274 15.9998 27.2C15.9998 20.5726 21.3724 15.2 27.9998 15.2C34.6272 15.2 39.9998 20.5726 39.9998 27.2Z" fill="#4D4744"/>
</svg>
