<svg width="24" height="24" viewBox="0 0 24 24" fill="none" xmlns="http://www.w3.org/2000/svg">
<g clip-path="url(#clip0_373_177)">
<path d="M12 4C6.28152 4 5.29297 10.9194 5.25141 15.0956C5.24955 15.2822 5.19782 15.4633 5.09936 15.6217L3.94943 17.4722C3.53547 18.1383 4.01451 19 4.79879 19H12H19.2012C19.9855 19 20.4645 18.1383 20.0506 17.4722L18.9006 15.6217C18.8022 15.4633 18.7504 15.2822 18.7486 15.0956C18.707 10.9194 17.7185 4 12 4Z" stroke="#7E7774" stroke-width="2"/>
<path d="M15 19C15 20.6569 13.6569 22 12 22C10.3431 22 9 20.6569 9 19" stroke="#7E7774" stroke-width="2"/>
<path d="M14 4C14 2.34315 13.5 1.5 12 1.5C10.5 1.5 10 2.34315 10 4" stroke="#7E7774" stroke-width="2"/>
</g>
<defs>
<clipPath id="clip0_373_177">
<rect width="24" height="24" fill="white"/>
</clipPath>
</defs>
</svg>
