<svg width="20" height="54" viewBox="0 0 20 54" fill="none" xmlns="http://www.w3.org/2000/svg">
<path d="M10 12.0807C8.38889 12.0807 7.01389 11.5113 5.875 10.3724C4.73611 9.23351 4.16667 7.85851 4.16667 6.2474C4.16667 4.63628 4.73611 3.26128 5.875 2.1224C7.01389 0.983507 8.38889 0.414062 10 0.414062C11.6111 0.414062 12.9861 0.983507 14.125 2.1224C15.2639 3.26128 15.8333 4.63628 15.8333 6.2474C15.8333 7.85851 15.2639 9.23351 14.125 10.3724C12.9861 11.5113 11.6111 12.0807 10 12.0807ZM4.33333 53.7474C3.78105 53.7474 3.33333 53.2997 3.33333 52.7474V37.0807H0.999999C0.447715 37.0807 0 36.633 0 36.0807V22.0807C0 20.2474 0.652778 18.678 1.95833 17.3724C3.26389 16.0668 4.83333 15.4141 6.66667 15.4141H13.3333C15.1667 15.4141 16.7361 16.0668 18.0417 17.3724C19.3472 18.678 20 20.2474 20 22.0807V36.0807C20 36.633 19.5523 37.0807 19 37.0807H16.6667V52.7474C16.6667 53.2997 16.219 53.7474 15.6667 53.7474H4.33333Z" fill="#4D4744"/>
</svg>
