<svg xmlns="http://www.w3.org/2000/svg" width="87" height="71" viewBox="0 0 87 71" fill="none">
  <path d="M28.0186 19.5928H14.7695C12.0081 19.5928 9.76953 21.8314 9.76953 24.5928V56.837C9.76953 59.5984 12.0081 61.837 14.7695 61.837H43.4995H72.2294C74.9908 61.837 77.2294 59.5984 77.2294 56.837V24.5928C77.2294 21.8314 74.9908 19.5928 72.2294 19.5928H58.9804M28.0186 19.5928L30.9906 12.0969C31.4863 10.8465 32.6952 10.0254 34.0403 10.0254H43.4995H52.9586C54.3038 10.0254 55.5126 10.8465 56.0084 12.0969L58.9804 19.5928M28.0186 19.5928H58.9804" stroke="#7E7774" stroke-width="3.03802"/>
  <path d="M15.8867 14.1248C15.8867 13.5586 16.3457 13.0996 16.9119 13.0996H23.1663C23.7325 13.0996 24.1915 13.5586 24.1915 14.1248V19.2173H15.8867V14.1248Z" stroke="#7E7774" stroke-width="3.03802"/>
  <circle cx="43.3981" cy="40.5123" r="12.8342" stroke="#7E7774" stroke-width="3.03802"/>
  <circle cx="43.397" cy="40.5123" r="7.29794" stroke="#7E7774" stroke-width="3.03802"/>
</svg>