<svg width="24" height="24" viewBox="0 0 24 24" fill="none" xmlns="http://www.w3.org/2000/svg">
<g clip-path="url(#clip0_211_6673)">
<path d="M5.25 12C5.25 12.5967 5.48705 13.169 5.90901 13.591C6.33097 14.0129 6.90326 14.25 7.5 14.25C8.09674 14.25 8.66903 14.0129 9.09099 13.591C9.51295 13.169 9.75 12.5967 9.75 12C9.75 11.4033 9.51295 10.831 9.09099 10.409C8.66903 9.98705 8.09674 9.75 7.5 9.75C6.90326 9.75 6.33097 9.98705 5.90901 10.409C5.48705 10.831 5.25 11.4033 5.25 12Z" stroke="#7E7774" stroke-width="1.5" stroke-linecap="round" stroke-linejoin="round"/>
<path d="M14.25 7.5C14.25 8.09674 14.4871 8.66903 14.909 9.09099C15.331 9.51295 15.9033 9.75 16.5 9.75C17.0967 9.75 17.669 9.51295 18.091 9.09099C18.5129 8.66903 18.75 8.09674 18.75 7.5C18.75 6.90326 18.5129 6.33097 18.091 5.90901C17.669 5.48705 17.0967 5.25 16.5 5.25C15.9033 5.25 15.331 5.48705 14.909 5.90901C14.4871 6.33097 14.25 6.90326 14.25 7.5Z" stroke="#7E7774" stroke-width="1.5" stroke-linecap="round" stroke-linejoin="round"/>
<path d="M14.25 16.5C14.25 17.0967 14.4871 17.669 14.909 18.091C15.331 18.5129 15.9033 18.75 16.5 18.75C17.0967 18.75 17.669 18.5129 18.091 18.091C18.5129 17.669 18.75 17.0967 18.75 16.5C18.75 15.9033 18.5129 15.331 18.091 14.909C17.669 14.4871 17.0967 14.25 16.5 14.25C15.9033 14.25 15.331 14.4871 14.909 14.909C14.4871 15.331 14.25 15.9033 14.25 16.5Z" stroke="#7E7774" stroke-width="1.5" stroke-linecap="round" stroke-linejoin="round"/>
<path d="M9.5249 11.0246L14.4749 8.47461" stroke="#7E7774" stroke-width="1.5" stroke-linecap="round" stroke-linejoin="round"/>
<path d="M9.5249 12.9746L14.4749 15.5246" stroke="#7E7774" stroke-width="1.5" stroke-linecap="round" stroke-linejoin="round"/>
</g>
<defs>
<clipPath id="clip0_211_6673">
<rect width="24" height="24" fill="white"/>
</clipPath>
</defs>
</svg>
