<svg width="24" height="24" viewBox="0 0 24 24" fill="none" xmlns="http://www.w3.org/2000/svg">
<mask id="path-1-inside-1_211_6777" fill="white">
<path fill-rule="evenodd" clip-rule="evenodd" d="M5.7899 11.6136C6.86465 10.2295 8.82897 8.60005 11.1831 8.13258C13.4425 7.68393 16.2608 8.26489 19.2493 11.6609C19.6142 12.0755 20.2461 12.1159 20.6607 11.751C21.0753 11.3862 21.1156 10.7543 20.7508 10.3397C17.3643 6.49135 13.8545 5.56307 10.7936 6.17088C7.82737 6.75989 5.4792 8.75268 4.21019 10.387C3.87148 10.8232 3.95053 11.4515 4.38675 11.7902C4.82298 12.1289 5.45119 12.0498 5.7899 11.6136ZM12.5 18.5135C14.7092 18.5135 16.5 16.7226 16.5 14.5135C16.5 12.3044 14.7092 10.5135 12.5 10.5135C10.2909 10.5135 8.50005 12.3044 8.50005 14.5135C8.50005 16.7226 10.2909 18.5135 12.5 18.5135Z"/>
</mask>
<path fill-rule="evenodd" clip-rule="evenodd" d="M5.7899 11.6136C6.86465 10.2295 8.82897 8.60005 11.1831 8.13258C13.4425 7.68393 16.2608 8.26489 19.2493 11.6609C19.6142 12.0755 20.2461 12.1159 20.6607 11.751C21.0753 11.3862 21.1156 10.7543 20.7508 10.3397C17.3643 6.49135 13.8545 5.56307 10.7936 6.17088C7.82737 6.75989 5.4792 8.75268 4.21019 10.387C3.87148 10.8232 3.95053 11.4515 4.38675 11.7902C4.82298 12.1289 5.45119 12.0498 5.7899 11.6136ZM12.5 18.5135C14.7092 18.5135 16.5 16.7226 16.5 14.5135C16.5 12.3044 14.7092 10.5135 12.5 10.5135C10.2909 10.5135 8.50005 12.3044 8.50005 14.5135C8.50005 16.7226 10.2909 18.5135 12.5 18.5135Z" fill="#7E7774"/>
<path d="M11.1831 8.13258L11.3779 9.11343L11.1831 8.13258ZM5.7899 11.6136L6.57976 12.2269L5.7899 11.6136ZM19.2493 11.6609L20 11.0003V11.0003L19.2493 11.6609ZM20.6607 11.751L21.3213 12.5017L21.3213 12.5017L20.6607 11.751ZM20.7508 10.3397L20 11.0003V11.0003L20.7508 10.3397ZM10.7936 6.17088L10.9883 7.15173L10.7936 6.17088ZM4.21019 10.387L3.42034 9.77372H3.42034L4.21019 10.387ZM4.38675 11.7902L3.77346 12.58H3.77346L4.38675 11.7902ZM10.9883 7.15173C8.32843 7.67992 6.17214 9.49079 5.00005 11.0003L6.57976 12.2269C7.55715 10.9681 9.32952 9.52018 11.3779 9.11343L10.9883 7.15173ZM20 11.0003C16.812 7.37756 13.6478 6.62363 10.9883 7.15173L11.3779 9.11343C13.2371 8.74423 15.7096 9.15222 18.4986 12.3216L20 11.0003ZM20 11.0003V11.0003L18.4986 12.3216C19.2283 13.1508 20.4921 13.2315 21.3213 12.5017L20 11.0003ZM20 11.0003V11.0003L21.3213 12.5017C22.1505 11.772 22.2312 10.5083 21.5015 9.67906L20 11.0003ZM10.9883 7.15173C13.648 6.6236 16.8121 7.37766 20 11.0003L21.5015 9.67906C17.9164 5.60504 14.061 4.50253 10.5988 5.19003L10.9883 7.15173ZM5.00005 11.0003C6.1721 9.49084 8.32838 7.67993 10.9883 7.15173L10.5988 5.19003C7.32635 5.83985 4.7863 8.01452 3.42034 9.77372L5.00005 11.0003ZM5.00005 11.0003H5.00005L3.42034 9.77372C2.74291 10.6462 2.90101 11.9026 3.77346 12.58L5.00005 11.0003ZM5.00005 11.0003H5.00005L3.77346 12.58C4.64591 13.2574 5.90233 13.0993 6.57976 12.2269L5.00005 11.0003ZM15.5 14.5135C15.5 16.1704 14.1569 17.5135 12.5 17.5135V19.5135C15.2615 19.5135 17.5 17.2749 17.5 14.5135H15.5ZM12.5 11.5135C14.1569 11.5135 15.5 12.8566 15.5 14.5135H17.5C17.5 11.7521 15.2615 9.5135 12.5 9.5135V11.5135ZM9.50005 14.5135C9.50005 12.8566 10.8432 11.5135 12.5 11.5135V9.5135C9.73862 9.5135 7.50005 11.7521 7.50005 14.5135H9.50005ZM12.5 17.5135C10.8432 17.5135 9.50005 16.1704 9.50005 14.5135H7.50005C7.50005 17.2749 9.73862 19.5135 12.5 19.5135V17.5135Z" fill="#7E7774" mask="url(#path-1-inside-1_211_6777)"/>
</svg>
